<?xml version="1.0" encoding="UTF-8"?>
<svg xmlns="http://www.w3.org/2000/svg" xmlns:xlink="http://www.w3.org/1999/xlink" width="512" height="512" viewBox="0 0 60 60" version="1.1"><!-- Generator: Sketch 51.3 (57544) - http://www.bohemiancoding.com/sketch --><title>030 - Pottery Tools</title><desc>Created with Sketch.</desc><defs/><g id="Page-1" stroke="none" stroke-width="1" fill="none" fill-rule="evenodd"><g id="030---Pottery-Tools" transform="translate(-1.000000, -1.000000)" fill-rule="nonzero"><path d="M35.04,37 L30.96,39 L29.49,38.27 L26.96,37 C26.96,37 30,28 27,21 L29.56,19.74 L31.06,19 L35,21 C32,28 35.04,37 35.04,37 Z" id="Shape" fill="#624421"/><path d="M32.08,37 L29.49,38.27 L26.96,37 C26.96,37 30,28 27,21 L29.56,19.74 L32.04,21 C29.04,28 32.08,37 32.08,37 Z" id="Shape" fill="#825A2C"/><path d="M52,2 C51.4967634,2.00054003 50.9946448,2.04740443 50.5,2.14 C54.1834298,2.83669018 56.889113,5.9976996 57.0091263,9.74451549 C57.1291396,13.4913314 54.6312941,16.8190137 51,17.75 L51,26.19 L54,26.19 L54,17.75 C57.9085582,16.7492835 60.4602698,12.9946959 59.9520169,8.99220421 C59.443764,4.98971251 56.0346249,1.99205831 52,2 Z" id="Shape" fill="#CFD8DC"/><path d="M50.5,2.14 C46.8165702,2.83669018 44.110887,5.9976996 43.9908737,9.74451549 C43.8708604,13.4913314 46.3687059,16.8190137 50,17.75 L50,26.19 L51,26.19 L51,17.75 C54.6312941,16.8190137 57.1291396,13.4913314 57.0091263,9.74451549 C56.889113,5.9976996 54.1834298,2.83669018 50.5,2.14 Z M52,14 C51.4847146,14.0039542 50.9741272,13.9018367 50.5,13.7 C48.9895658,13.0925605 48,11.6280031 48,10 C48,8.37199692 48.9895658,6.90743946 50.5,6.3 C50.9741272,6.09816328 51.4847146,5.99604578 52,6 C54.209139,6 56,7.790861 56,10 C56,12.209139 54.209139,14 52,14 Z" id="Shape" fill="#F5F5F5"/><path d="M56,28.1 L56,35.09 L48,35.09 L48,28.1 C48.0011749,27.2584107 48.5737922,26.525131 49.39,26.32 C49.9172356,26.1807453 50.4561801,26.0903633 51,26.05 C51.3320373,26.0133979 51.6659677,25.9967014 52,26 C52.8800204,25.9960559 53.7569976,26.103578 54.61,26.32 C55.4262078,26.525131 55.9988251,27.2584107 56,28.1 Z" id="Shape" fill="#545C60"/><path d="M35.04,37 L32.04,37 C34.277487,42.1496811 34.6106718,47.9272472 32.98,53.3 L31.67,57.6 C31.3089663,58.6035329 30.5100755,59.3876975 29.5,59.73 C29.9788508,59.9125264 30.4875576,60.0040937 31,60 C32.6091856,60.0616787 34.0813798,59.0989359 34.67,57.6 L35.98,53.3 C37.6106718,47.9272472 37.277487,42.1496811 35.04,37 Z" id="Shape" fill="#F57C00"/><path d="M36,13 L36,20 C36,20.5522847 35.5522847,21 35,21 L27,21 C26.4477153,21 26,20.5522847 26,20 L26,13 L36,13 Z" id="Shape" fill="#545C60"/><path d="M15.12,2.18 C14.3581367,1.83206031 13.4601646,1.9956908 12.87,2.59 L12.38,3.08 C12.8067681,3.48652828 13.0303511,4.06197954 12.99,4.65 L11.72,22.3 L14.93,22.49 C14.9605063,22.3753798 14.980588,22.2582364 14.99,22.14 L16.28,4.14 C16.3356272,3.30970234 15.874622,2.53076242 15.12,2.18 Z" id="Shape" fill="#CFD8DC"/><path d="M12.38,3.08 L2.59,12.87 C2.19424742,13.262719 1.98038695,13.8028073 2,14.36 C2.01757132,14.9177949 2.27220762,15.4416181 2.7,15.8 L10.17,22.21 L11.72,22.3 L12.99,4.65 C13.0303511,4.06197954 12.8067681,3.48652828 12.38,3.08 Z M11.29,17.9 L8.22,15.27 L6.94,14.17 L8.41,12.71 L11.91,9.21 L11.29,17.9 Z" id="Shape" fill="#F5F5F5"/><path d="M15,23 L15,29 L9.99999483,29 L10,23 C9.99936448,22.7275233 10.0573422,22.4580972 10.17,22.21 C10.4116059,21.6436115 10.9033234,21.2221394 11.5,21.07 C11.6621858,21.0215984 11.8307578,20.9979983 12,21 L13,21 C13.9067059,21.0017604 14.6987913,21.6132668 14.93,22.49 C14.9790864,22.6554611 15.0026902,22.8274323 15,23 Z" id="Shape" fill="#545C60"/><path d="M15,51 L15,58 C14.9967052,59.1032019 14.1032019,59.9967052 13,60 L12,60 C11.8307578,60.0020017 11.6621858,59.9784016 11.5,59.93 C10.6192985,59.702609 10.0029536,58.9095785 10,58 L10,51 L15,51 Z" id="Shape" fill="#545C60"/><path d="M54,28.1 L54,35.09 L48,35.09 L48,28.1 C48.0011749,27.2584107 48.5737922,26.525131 49.39,26.32 C49.9172356,26.1807453 50.4561801,26.0903633 51,26.05 C51.5438199,26.0903633 52.0827644,26.1807453 52.61,26.32 C53.4262078,26.525131 53.9988251,27.2584107 54,28.1 Z" id="Shape" fill="#7F8E94"/><path d="M34,13 L34,20 C34,20.5522847 33.5522847,21 33,21 L27,21 C26.4477153,21 26,20.5522847 26,20 L26,13 L34,13 Z" id="Shape" fill="#7F8E94"/><path d="M13,23 L13,29 L9.99999483,29 L10,23 C9.99936448,22.7275233 10.0573422,22.4580972 10.17,22.21 C10.4116059,21.6436115 10.9033234,21.2221394 11.5,21.07 C12.197735,21.251046 12.7440621,21.7935527 12.93,22.49 C12.9790864,22.6554611 13.0026902,22.8274323 13,23 Z" id="Shape" fill="#7F8E94"/><path d="M13,51 L13,58 C12.9970464,58.9095785 12.3807015,59.702609 11.5,59.93 C10.6192985,59.702609 10.0029536,58.9095785 10,58 L10,51 L13,51 Z" id="Shape" fill="#7F8E94"/><path d="M15,53 L10,53 C8.63999773,44.3866874 8.63999773,35.6133126 10,27 L15,27 C16.3600023,35.6133126 16.3600023,44.3866874 15,53 Z" id="Shape" fill="#F57C00"/><path d="M56.4,57.5 C56.3390373,57.6769439 56.2549775,57.8450635 56.15,58 C55.1164963,59.2296777 53.6057558,59.9577454 52,60 C51.4901989,59.993399 50.9843852,59.9090967 50.5,59.75 C49.4615181,59.4448425 48.5384208,58.83525 47.85,58 C47.7450225,57.8450635 47.6609627,57.6769439 47.6,57.5 C45.28,49.83 50.61,42.17 47.77,34.5 C47.708988,34.3400845 47.6751872,34.1710805 47.67,34 C47.55,33.09 48.64,32.35 50.5,32.1 C50.9967553,32.0288158 51.4981916,31.9953867 52,32 C54.75,32 56.48,32.86 56.33,34 C56.3248128,34.1710805 56.291012,34.3400845 56.23,34.5 C53.39,42.17 58.72,49.83 56.4,57.5 Z" id="Shape" fill="#F57C00"/><path d="M32.04,37 L26.96,37 C24.722513,42.1496811 24.3893282,47.9272472 26.02,53.3 L27.33,57.6 C27.6910337,58.6035329 28.4899245,59.3876975 29.5,59.73 C30.5100755,59.3876975 31.3089663,58.6035329 31.67,57.6 L32.98,53.3 C34.6106718,47.9272472 34.277487,42.1496811 32.04,37 Z M31,53 C30.4232639,52.9999241 29.8753454,52.7478816 29.5,52.31 C28.8332879,51.5639105 28.8332879,50.4360895 29.5,49.69 C29.8753454,49.2521184 30.4232639,49.0000759 31,49 C32.1045695,49 33,49.8954305 33,51 C33,52.1045695 32.1045695,53 31,53 Z" id="Shape" fill="#FF9801"/><path d="M12,53 L10,53 C8.63999773,44.3866874 8.63999773,35.6133126 10,27 L12,27 C13.3600023,35.6133126 13.3600023,44.3866874 12,53 Z" id="Shape" fill="#FF9801"/><path d="M53.4,57.5 C53.3390373,57.6769439 53.2549775,57.8450635 53.15,58 C52.4615792,58.83525 51.5384819,59.4448425 50.5,59.75 C49.4615181,59.4448425 48.5384208,58.83525 47.85,58 C47.7450225,57.8450635 47.6609627,57.6769439 47.6,57.5 C45.28,49.83 50.61,42.17 47.77,34.5 C47.708988,34.3400845 47.6751872,34.1710805 47.67,34 C47.55,33.09 48.64,32.35 50.5,32.1 C52.36,32.35 53.45,33.09 53.33,34 C53.3248128,34.1710805 53.291012,34.3400845 53.23,34.5 C50.39,42.17 55.72,49.83 53.4,57.5 Z" id="Shape" fill="#FF9801"/><path d="M40.61,3.59 C38.2008417,6.97974855 36.6217514,10.8880827 36,15 L26,15 C25.3782486,10.8880827 23.7991583,6.97974855 21.39,3.59 C21.1675684,3.28560948 21.135231,2.88199321 21.3063613,2.54607084 C21.4774915,2.21014848 21.8230007,1.99902009 22.2,2 L39.8,2 C40.1769993,1.99902009 40.5225085,2.21014848 40.6936387,2.54607084 C40.864769,2.88199321 40.8324316,3.28560948 40.61,3.59 Z" id="Shape" fill="#DFC49C"/><path d="M37.8,3.59 C35.3908417,6.97974855 33.8117514,10.8880827 33.19,15 L26,15 C25.3782486,10.8880827 23.7991583,6.97974855 21.39,3.59 C21.1675684,3.28560948 21.135231,2.88199321 21.3063613,2.54607084 C21.4774915,2.21014848 21.8230007,1.99902009 22.2,2 L36.99,2 C37.3669993,1.99902009 37.7125085,2.21014848 37.8836387,2.54607084 C38.054769,2.88199321 38.0224316,3.28560948 37.8,3.59 Z" id="Shape" fill="#FFE0B2"/><path d="M15,54 L10,54 C9.50822753,53.9996277 9.08971639,53.6417519 9.013,53.156 C7.63000101,44.4398527 7.63000101,35.5601473 9.013,26.844 C9.08971639,26.3582481 9.50822753,26.0003723 10,26 L15,26 C15.4917725,26.0003723 15.9102836,26.3582481 15.987,26.844 C17.369999,35.5601473 17.369999,44.4398527 15.987,53.156 C15.9102836,53.6417519 15.4917725,53.9996277 15,54 Z M10.858,52 L14.142,52 C15.3190678,44.0432965 15.3190678,35.9567035 14.142,28 L10.858,28 C9.68093222,35.9567035 9.68093222,44.0432965 10.858,52 Z" id="Shape" fill="#000000"/><path d="M52,61 C50.0815453,60.9517797 48.2775488,60.0767612 47.052,58.6 C46.8766143,58.351645 46.7397378,58.0782292 46.646,57.789 C45.453,53.849 46.153,49.957 46.83,46.195 C47.537,42.262 48.205,38.547 46.836,34.845 C46.7414522,34.5926978 46.6845101,34.3278663 46.667,34.059 C46.6078202,33.4751571 46.8048264,32.8943537 47.207,32.467 C48.041,31.522 49.743,31 52,31 C54.257,31 55.957,31.521 56.792,32.469 C57.2062297,32.9152551 57.4020561,33.5217678 57.327,34.126 C57.3080633,34.3719168 57.2534932,34.613777 57.165,34.844 C55.796,38.544 56.465,42.261 57.171,46.194 C57.848,49.956 58.548,53.848 57.355,57.787 C57.2683049,58.0611084 57.1416047,58.3209111 56.979,58.558 C55.7535249,60.0574514 53.9358556,60.9489453 52,61 Z M52,33 C49.6,33 48.7,33.677 48.656,33.869 C48.6607141,33.9665427 48.6795778,34.0628827 48.712,34.155 C50.27,38.367 49.521,42.527 48.798,46.55 C48.134,50.244 47.507,53.731 48.561,57.21 C48.5891593,57.2932153 48.6296067,57.3717508 48.681,57.443 C49.5065329,58.4371311 50.7344765,59.0085176 52.0266549,58.9997998 C53.3188334,58.9910819 54.5389557,58.4031792 55.351,57.398 C55.3891317,57.3391252 55.4187575,57.2751603 55.439,57.208 C56.493,53.731 55.866,50.244 55.202,46.55 C54.479,42.527 53.73,38.367 55.289,34.15 C55.3139402,34.083038 55.3300753,34.0131195 55.337,33.942 C55.3,33.677 54.4,33 52,33 Z" id="Shape" fill="#000000"/><path d="M56,34.09 C55.4477153,34.09 55,33.6422847 55,33.09 L55,28.1 C54.9976525,27.715634 54.7350093,27.3817726 54.362,27.289 C52.81136,26.9054972 51.19064,26.9054972 49.64,27.289 C49.2666036,27.3816276 49.0032862,27.7153002 49,28.1 L49,33.09 C49,33.6422847 48.5522847,34.09 48,34.09 C47.4477153,34.09 47,33.6422847 47,33.09 L47,28.1 C47.0021327,26.8019228 47.883824,25.6703778 49.142,25.351 C51.0194552,24.8844967 52.9825448,24.8844967 54.86,25.351 C56.1175873,25.6708353 56.9984551,26.8023799 57,28.1 L57,33.09 C57,33.6422847 56.5522847,34.09 56,34.09 Z" id="Shape" fill="#000000"/><path d="M54,18.75 C53.4969893,18.7490227 53.0729921,18.3745587 53.0098523,17.8755255 C52.9467124,17.3764924 53.2640838,16.9082272 53.751,16.782 C57.1640368,15.9007577 59.3893691,12.6191232 58.9452079,9.1222491 C58.5010466,5.62537496 55.5259692,3.00427914 52.001,3.00427914 C48.4760308,3.00427914 45.5009534,5.62537496 45.0567921,9.1222491 C44.6126309,12.6191232 46.8379632,15.9007577 50.251,16.782 C50.603846,16.86496 50.8841764,17.1323595 50.9836948,17.4808976 C51.0832132,17.8294356 50.9863373,18.2045392 50.7304919,18.4612994 C50.4746464,18.7180596 50.099891,18.8162737 49.751,18.718 C45.3628099,17.5849742 42.5016683,13.3657299 43.0727327,8.86974884 C43.6437972,4.3737678 47.4688967,1.00378747 52.001,1.00378747 C56.5331033,1.00378747 60.3582028,4.3737678 60.9292673,8.86974884 C61.5003317,13.3657299 58.6391901,17.5849742 54.251,18.718 C54.1690507,18.7393806 54.0846924,18.7501354 54,18.75 Z" id="Shape" fill="#000000"/><path d="M52,15 C49.2385763,15 47,12.7614237 47,10 C47,7.23857625 49.2385763,5 52,5 C54.7614237,5 57,7.23857625 57,10 C56.9966939,12.7600532 54.7600532,14.9966939 52,15 Z M52,7 C50.3431458,7 49,8.34314575 49,10 C49,11.6568542 50.3431458,13 52,13 C53.6568542,13 55,11.6568542 55,10 C55,9.20435053 54.6839295,8.44128879 54.1213203,7.87867966 C53.5587112,7.31607052 52.7956495,7 52,7 Z" id="Shape" fill="#000000"/><path d="M50,27.19 C49.4477153,27.19 49,26.7422847 49,26.19 L49,17.75 C49,17.1977153 49.4477153,16.75 50,16.75 C50.5522847,16.75 51,17.1977153 51,17.75 L51,26.19 C51,26.7422847 50.5522847,27.19 50,27.19 Z" id="Shape" fill="#000000"/><path d="M54,27.19 C53.4477153,27.19 53,26.7422847 53,26.19 L53,17.75 C53,17.1977153 53.4477153,16.75 54,16.75 C54.5522847,16.75 55,17.1977153 55,17.75 L55,26.19 C55,26.7422847 54.5522847,27.19 54,27.19 Z" id="Shape" fill="#000000"/><path d="M31,61 C28.9560351,61.0734931 27.0941535,59.8314332 26.377,57.916 L25.065,53.591 C23.3726434,47.9896658 23.7194954,41.9698877 26.044,36.6 C26.2032641,36.2350788 26.563839,35.999409 26.962,36 L35.038,36 C35.436161,35.999409 35.7967359,36.2350788 35.956,36.6 C38.2797775,41.9690075 38.6266218,47.9875894 36.935,53.588 L35.635,57.888 C34.9246208,59.8177875 33.0550881,61.0730164 31,61 Z M27.629,38 C25.718426,42.7852775 25.4892503,48.0774733 26.979,53.01 L28.279,57.31 C28.7903969,58.3489316 29.8498567,59.0049139 31.0078192,58.9995943 C32.1657818,58.9942747 33.2191699,58.3285862 33.721,57.285 L35.021,53.011 C36.5107443,48.0781347 36.2815703,42.7856263 34.371,38 L27.629,38 Z" id="Shape" fill="#000000"/><path d="M35,22 L27,22 C25.8954305,22 25,21.1045695 25,20 L25,15 C25,14.4477153 25.4477153,14 26,14 L36,14 C36.5522847,14 37,14.4477153 37,15 L37,20 C37,21.1045695 36.1045695,22 35,22 Z M27,16 L27,20 L35,20 L35,16 L27,16 Z" id="Shape" fill="#000000"/><path d="M36,16 L26,16 C25.4961071,15.999921 25.0709866,15.6249408 25.008,15.125 C24.4035233,11.1913902 22.8946277,7.45167056 20.6,4.2 C20.1415405,3.6048217 20.0638433,2.7998787 20.4,2.128 C20.7342356,1.43810505 21.4334046,0.999959114 22.2,1 L39.8,1 C40.5659175,0.999401481 41.2649112,1.4362726 41.6,2.125 C41.9374246,2.79766691 41.85969,3.60416342 41.4,4.2 C39.1010828,7.45037875 37.5908503,11.1915511 36.989,15.127 C36.9252378,15.6250159 36.502079,15.9985423 36,16 Z M26.852,14 L35.152,14 C35.8623335,10.0231178 37.4565433,6.25647675 39.817,2.978 L40.61,3.587 L39.817,2.978 L40.61,3.587 L39.818,2.977 L22.2,3 C24.5550363,6.27192516 26.1448539,10.0311671 26.852,14 Z" id="Shape" fill="#000000"/><path d="M29,10 C28.5251071,9.999622 28.1159785,9.66529831 28.021,9.2 C27.452059,6.80223176 26.3804233,4.55261487 24.877,2.6 C24.5470099,2.15651535 24.6390153,1.52949014 25.0825,1.1995 C25.5259847,0.869509862 26.1530099,0.961515346 26.483,1.405 C28.1636217,3.59409782 29.3569436,6.11712131 29.983,8.805 C30.0903282,9.34550466 29.7401647,9.87097355 29.2,9.98 C29.1342202,9.99366855 29.0671839,10.0003722 29,10 Z" id="Shape" fill="#000000"/><path d="M33,10 C32.9328161,10.0003722 32.8657798,9.99366855 32.8,9.98 C32.5400613,9.92700544 32.3118322,9.77289548 32.1655449,9.55158898 C32.0192575,9.33028249 31.9669015,9.05991748 32.02,8.8 C32.6460564,6.11212131 33.8393783,3.58909782 35.52,1.4 C35.7343593,1.11347297 36.0852959,0.963070436 36.4406153,1.00544757 C36.7959346,1.04782471 37.1016553,1.27654343 37.2426153,1.6054476 C37.3835753,1.93435176 37.3383594,2.313473 37.124,2.6 C35.6205767,4.55261487 34.548941,6.80223176 33.98,9.2 C33.8849463,9.66566625 33.4752686,10.000097 33,10 Z" id="Shape" fill="#000000"/><path d="M31,54 C29.3431458,54 28,52.6568542 28,51 C28,49.3431458 29.3431458,48 31,48 C32.6568542,48 34,49.3431458 34,51 C34,52.6568542 32.6568542,54 31,54 Z M31,50 C30.4477153,50 30,50.4477153 30,51 C30,51.5522847 30.4477153,52 31,52 C31.5522847,52 32,51.5522847 32,51 C32,50.4477153 31.5522847,50 31,50 Z" id="Shape" fill="#000000"/><path d="M26.962,38 C26.640174,37.9997571 26.3381329,37.844642 26.1504384,37.5832175 C25.9627439,37.321793 25.9123374,36.9860121 26.015,36.681 C26.043,36.594 28.891,27.951 26.081,21.394 C25.9341765,21.064577 25.9761152,20.6816155 26.1907549,20.3917769 C26.4053946,20.1019382 26.7594763,19.9501339 27.1173985,19.9944998 C27.4753207,20.0388658 27.7816223,20.2725274 27.919,20.606 C31.034,27.874 28.038,36.938 27.909,37.32 C27.7717799,37.7262648 27.3908127,37.9998209 26.962,38 Z" id="Shape" fill="#000000"/><path d="M35.038,38 C34.6091873,37.9998209 34.2282201,37.7262648 34.091,37.32 C33.962,36.938 30.966,27.874 34.081,20.606 C34.2183777,20.2725274 34.5246793,20.0388658 34.8826015,19.9944998 C35.2405237,19.9501339 35.5946054,20.1019382 35.8092451,20.3917769 C36.0238848,20.6816155 36.0658235,21.064577 35.919,21.394 C33.103,27.966 35.956,36.594 35.985,36.68 C36.0880629,36.9851363 36.0378518,37.3212342 35.8501081,37.5829256 C35.6623643,37.8446171 35.3600716,37.9998655 35.038,38 Z" id="Shape" fill="#000000"/><path d="M14.931,23.491 C14.8411346,23.4907702 14.7516937,23.4786654 14.665,23.455 C14.4091823,23.3848761 14.191706,23.2159874 14.0604261,22.9854974 C13.9291462,22.7550074 13.8948197,22.4818022 13.965,22.226 C13.9795035,22.1713246 13.9888774,22.1154159 13.993,22.059 L15.283,4.069 C15.3083319,3.65202062 15.0758476,3.26203409 14.697,3.086 C14.3161949,2.91589071 13.8698027,2.99998781 13.577,3.297 L3.3,13.577 C3.10131369,13.7740068 2.99276469,14.0442938 3,14.324 C3.00704354,14.598382 3.1320462,14.856405 3.343,15.032 L10.822,21.451 C11.1089618,21.6785866 11.2485481,22.0448406 11.1858502,22.4056891 C11.1231523,22.7665377 10.8682026,23.0642405 10.5212902,23.1816907 C10.1743779,23.2991409 9.79101333,23.2175449 9.522,22.969 L2.052,16.559 C1.41191073,16.0203952 1.02971313,15.2360182 1,14.4 C0.973079118,13.5665988 1.29193151,12.7591531 1.881,12.169 L12.163,1.883 C13.0454184,0.989093524 14.3933739,0.743974351 15.534,1.27 C16.6667273,1.79670404 17.3591923,2.96551182 17.277,4.212 L15.987,22.212 C15.9729629,22.3957565 15.9421682,22.5778465 15.895,22.756 C15.7757145,23.1900409 15.3811339,23.4908882 14.931,23.491 Z M11.288,18.9 C11.0496555,18.9000183 10.8191418,18.8149056 10.638,18.66 L6.291,14.932 C6.0795378,14.7508303 5.95319185,14.4896944 5.94237322,14.2114469 C5.93155459,13.9331995 6.03724316,13.6630418 6.234,13.466 L11.2,8.5 C11.4956534,8.20842371 11.9407375,8.12989875 12.3183194,8.302698 C12.6959013,8.47549724 12.9274065,8.86366131 12.9,9.278 L12.28,17.971 C12.2421767,18.4949851 11.8053467,18.9003633 11.28,18.899 L11.288,18.9 Z M8.412,14.116 L10.432,15.848 L10.72,11.808 L8.412,14.116 Z" id="Shape" fill="#000000"/><path d="M15,28 C14.4477153,28 14,27.5522847 14,27 L14,23 C14.0020902,22.9302624 13.9943475,22.8605779 13.977,22.793 C13.8722786,22.3355479 13.4692106,22.0083903 13,22 L12,22 C11.6051086,22.0029726 11.2489498,22.2380609 11.091,22.6 C11.0315568,22.7249969 11.000482,22.8615894 11,23 L11,27 C11,27.5522847 10.5522847,28 10,28 C9.44771525,28 9,27.5522847 9,27 L9,23 C8.99965946,22.583307 9.08865945,22.1713836 9.261,21.792 C9.73256605,20.6998993 10.8104496,19.9946904 12,20 L13,20 C14.3603485,20.0021023 15.5497318,20.9175173 15.9,22.232 C15.9721039,22.481444 16.0058233,22.7404092 16,23 L16,27 C16,27.5522847 15.5522847,28 15,28 Z" id="Shape" fill="#000000"/><path d="M13,61 L12,61 C10.3431458,61 9,59.6568542 9,58 L9,53 C9,52.4477153 9.44771525,52 10,52 C10.5522847,52 11,52.4477153 11,53 L11,58 C11,58.5522847 11.4477153,59 12,59 L13,59 C13.5522847,59 14,58.5522847 14,58 L14,53 C14,52.4477153 14.4477153,52 15,52 C15.5522847,52 16,52.4477153 16,53 L16,58 C16,59.6568542 14.6568542,61 13,61 Z" id="Shape" fill="#000000"/></g></g></svg>
