<svg height="512pt" viewBox="-125 0 512 512.00011" width="512pt" xmlns="http://www.w3.org/2000/svg"><path d="m211.558594 379.671875c-5.503906-18.449219-30.945313-52-30.945313-52l4.945313-54.074219h1.574218c7.074219 0 13.824219-2.949218 18.628907-8.136718l8.292969-8.957032c6.109374-6.59375 9.503906-15.253906 9.503906-24.242187v-22.324219c0-10.671875-7.15625-20.019531-17.457032-22.804688l-41.769531-11.292968c-1.546875-.421875-2.917969-1.203125-4.03125-2.238282-.578125.886719-1.394531 1.621094-2.390625 2.085938l-66.152344 30.988281c-12.097656 5.664063-19.824218 17.816407-19.824218 31.175781v41.507813c0 6.984375 5.664062 12.648437 12.648437 12.648437h15.398438v-24l1.179687.066407 18.070313 68.265625s-22.667969 54.664062-22.667969 81.328125c0 26.664062 36 84.332031 36 84.332031h59.664062s32.234376-79.09375 19.332032-122.328125zm0 0" fill="#efeeee"/><path d="m156.796875 21.265625c-1.792969-1.980469-3.890625-3.671875-6.226563-5.101563-8.441406 3.757813-15.101562 9.042969-17.890624 15.304688-31.203126 2-42.796876 28-22.796876 54.878906.667969 36.214844 31.277344 39.144532 31.277344 39.144532s.335938.128906.929688.355468l-.644532.375c4.101563 8.425782 9.472657 15.578125 15.738282 20.957032 14.710937-12.628907 24.507812-35.070313 24.507812-60.675782 0-26.105468-9.894531-51.28125-24.894531-65.238281zm0 0" fill="#efeeee"/><path d="m211.558594 379.671875c-5.503906-18.449219-30.945313-52-30.945313-52l4.945313-54.074219h1.574218c7.074219 0 13.824219-2.949218 18.628907-8.136718l8.292969-8.957032c6.109374-6.59375 9.503906-15.253906 9.503906-24.242187v-22.324219c0-10.671875-7.15625-20.019531-17.457032-22.804688l-41.769531-11.292968c-2.09375-.566406-3.871093-1.800782-5.121093-3.433594-.507813 1.421875-1.554688 2.621094-2.96875 3.28125l-66.152344 30.988281c-12.097656 5.664063-19.824219 17.816407-19.824219 31.175781v41.507813c0 6.984375 5.664063 12.648437 12.648437 12.648437h15.402344l19.246094 44.332032s-22.667969 54.664062-22.667969 81.328125c0 26.664062 36 84.328125 36 84.328125h61.332031c0 .003906 32.234376-79.089844 19.332032-122.324219zm0 0" fill="#d1d3d4"/><path d="m90.960938 484.875c10.011718-3.253906 17.644531-8.878906 25.441406-15.804688 7.359375-6.535156 14.3125-13.507812 21.636718-20.074218 6.328126-5.679688 12.21875-11.742188 17.210938-18.65625 9.222656-12.765625 14.949219-27.460938 19.53125-42.425782 4.707031-15.390624 10.804688-30.207031 16.53125-45.207031-1.5-2.210937-2.9375-4.285156-4.234375-6.128906-4.113281 3.28125-8.410156 6.355469-12.535156 9.574219-22.738281 17.738281-39.488281 41.996094-62.570313 59.445312-20.492187 15.492188-43.714844 22.28125-68.449218 24.992188 5.066406 19.511718 18.808593 45.226562 27.203124 59.875 6.726563-1.929688 13.574219-3.421875 20.234376-5.589844zm0 0" fill="#efeeee"/><path d="m91.949219 292.34375h-11.71875c-5.519531 0-10-4.476562-10-10s4.480469-10 10-10h11.71875c7.554687 0 14.449219-3.828125 18.441406-10.242188l3.351563-5.378906c2.921874-4.6875 9.085937-6.121094 13.773437-3.199218 4.6875 2.917968 6.121094 9.085937 3.203125 13.773437l-3.351562 5.378906c-7.671876 12.316407-20.914063 19.667969-35.417969 19.667969zm0 0"/><path d="m114.945312 410.484375c-3.449218 0-6.808593-1.777344-8.664062-4.96875-2.769531-4.777344-1.171875-10.882813 3.605469-13.65625l.042969-.023437c4.777343-2.773438 10.898437-1.152344 13.671874 3.625 2.769532 4.773437 1.148438 10.894531-3.628906 13.667968-1.582031.917969-3.316406 1.355469-5.027344 1.355469zm0 0"/><path d="m252.875 512h-.191406c-5.523438 0-10-4.480469-10-10 0-5.523438 4.476562-10 10-10h.191406c5.523438 0 10 4.476562 10 10 0 5.519531-4.476562 10-10 10zm0 0"/><path d="m213.097656 272.257812 8.296875-8.957031c7.84375-8.472656 12.164063-19.496093 12.164063-31.039062v-22.324219c0-15.152344-10.214844-28.5-24.84375-32.457031l-41.488282-11.214844v-14.730469c2.585938-2.585937 5.035157-5.445312 7.320313-8.589844 11.054687-15.203124 17.144531-35.246093 17.144531-56.441406 0-28.46875-10.636718-56.117187-27.78125-72.277344-10.871094-11.703124-30.292968-16.609374-52.085937-13.128906-14.417969 2.300782-31.582031 8.96875-40.199219 20.96875-15.683594 2.355469-27.65625 10.40625-33.292969 22.578125-6.214843 13.429688-3.761719 29.714844 6.683594 45.082031 1.820313 28.824219 20.765625 41.09375 34.402344 44.664063 4.617187 8.410156 10.332031 15.441406 16.8125 20.871094v12.515625l-63.714844 29.847656c-15.539063 7.277344-25.582031 23.070312-25.582031 40.230469v41.507812c0 12.488281 10.160156 22.644531 22.648437 22.644531h15.214844l8.914063 33.667969c-4.945313 12.375-22.144532 57.210938-22.144532 81.996094 0 20.550781 17.261719 54.464844 28.476563 74.328125h-50.042969c-5.523438 0-10 4.476562-10 10s4.476562 10 10 10h213.558594c5.519531 0 9.996094-4.476562 9.996094-10s-4.476563-10-9.996094-10h-16.949219c8.859375-25.410156 25.019531-80.027344 14.53125-115.1875-5.023437-16.828125-23.382813-42.746094-30.222656-52.042969l3.84375-42.015625c6.980469-1.550781 13.414062-5.183594 18.335937-10.496094zm-41.914062-195.5c.335937 3.226563.507812 6.484376.507812 9.746094 0 17.003906-4.730468 32.871094-13.316406 44.679688-7.890625 10.847656-18.078125 16.820312-28.683594 16.820312-11.644531 0-22.785156-7.300781-30.746094-19.851562 8.191407-7.574219 16.433594-19.488282 15.714844-33.542969 14.402344-3.480469 25.15625-15.351563 30.472656-33.863281 10.300782 3.652344 20.535157 11.242187 26.050782 16.011718zm-78.050782 12.945313c5.144532 11.199219-4.253906 20.914063-9.371093 25.132813-6.132813-1.792969-18.496094-7.96875-18.878907-28.671876-.035156-2.085937-.726562-4.109374-1.972656-5.785156-7.476562-10.042968-9.816406-20.007812-6.425781-27.332031 3.089844-6.679687 11.050781-10.90625 21.835937-11.597656 3.710938-.238281 6.984376-2.515625 8.496094-5.910157 2.429688-5.457031 12.882813-12.253906 28.160156-14.695312 3.503907-.558594 6.929688-.828125 10.203126-.828125 10.59375 0 19.570312 2.839844 24.207031 7.960937.1875.210938.390625.414063.597656.609376 5.09375 4.738281 9.492187 11.039062 12.96875 18.308593-7.417969-3.964843-15.882813-7.246093-24.46875-8.050781-5.246094-.480469-9.96875 3.167969-10.804687 8.363281-2.222657 13.765625-8.28125 29.851563-24.542969 28.359375-3.558594-.332031-7.015625 1.265625-9.078125 4.179688-2.0625 2.914062-2.417969 6.710937-.925782 9.957031zm99.136719 273.019531c4.382813 7.324219 8.125 14.5 9.707031 19.808594 9.761719 32.710938-9.640624 90.492188-16.632812 109.46875h-82.375c53.261719-26.878906 74.894531-66.132812 83.542969-96.265625 3.410156-11.890625 5.078125-23.136719 5.757812-33.011719zm-5.132812-99.125h-42.078125c-5.523438 0-10 4.476563-10 10 0 5.523438 4.476562 10 10 10h29.546875l-3.871094 42.3125c-1.074219 3.640625-9.132813 27.777344-39.613281 51.679688-4.34375 3.410156-5.105469 9.695312-1.699219 14.039062 3.410156 4.347656 9.695313 5.105469 14.039063 1.699219 12.488281-9.789063 21.753906-19.679687 28.59375-28.648437-.71875 7.785156-2.160157 16.449218-4.765626 25.539062-11.992187 41.777344-42.289062 72.503906-90.089843 91.441406-7.601563-13.554687-16.769531-31.492187-21.824219-46.25 14.046875-3.871094 27.300781-8.464844 39.496094-13.726562 5.070312-2.1875 7.40625-8.070313 5.21875-13.140625-2.1875-5.074219-8.070313-7.410157-13.140625-5.222657-10.90625 4.703126-22.757813 8.851563-35.335938 12.386719.9375-20.894531 15.957031-61.292969 21.855469-75.535156.839844-2.023437.992188-4.269531.429688-6.386719l-18.070313-68.265625c-1.183594-4.480469-5.226563-7.425781-9.648437-7.433593-.328126 0-.65625.019531-.984376.050781-.042968.003906-.089843.007812-.132812.011719-.234375.027343-.472656.058593-.710938.105468-4.878906.828125-9.363281 4.84375-9.363281 9.757813v14h-5.402343c-1.460938 0-2.648438-1.1875-2.648438-2.648438v-41.507812c0-9.4375 5.519531-18.117188 14.066406-22.121094l66.152344-30.988281c5.511719-2.582032 9.074219-8.1875 9.074219-14.273438v-4.378906c4.363281 1.253906 8.871093 1.910156 13.464843 1.910156 6.042969 0 11.925782-1.125 17.535157-3.257812v1.816406c0 8.835938 5.960937 16.625 14.492187 18.929688l41.773438 11.296874c5.925781 1.601563 10.066406 7.011719 10.066406 13.152344v22.320313c0 6.492187-2.429688 12.6875-6.839844 17.449219l-8.296875 8.957031c-2.902343 3.132812-7.019531 4.929687-11.289062 4.929687zm0 0"/></svg>